<?xml version="1.0" encoding="UTF-8"?><svg id="Capa_1" xmlns="http://www.w3.org/2000/svg" viewBox="0 0 201.88 197.5"><defs><style>.cls-1{fill:#fff;}.cls-2{fill:#030304;}.cls-3{fill:#010101;}</style></defs><path class="cls-3" d="M156.27,85.44c2.29-.03,4.57,.03,6.86-.03,1.8-.05,2.42-.57,2.98-2.35v-13.03c-.49-1.53-1.53-2.1-2.96-2.05-.76,.03-1.53-.07-2.29,.02-2.1,.26-3.83-.55-5.56-1.81-9.68-7.06-19.35-14.14-29.1-21.1-7.55-5.39-15.02-10.9-22.53-16.35-1.91-1.38-3.42-1.39-5.3-.03-9.18,6.62-18.32,13.34-27.52,19.92-8.08,5.78-16.1,11.63-24.1,17.53-1.75,1.29-3.52,2.13-5.68,1.84-.79-.11-1.61-.04-2.41-.01-1.96,.06-2.88,1.08-2.89,3.18,0,3.55,0,7.11,0,10.66,0,2.57,.85,3.51,3.19,3.54,2.24,.02,4.49,0,6.74,.01,1.44,0,1.53,.11,1.54,1.63,.01,1.94-.01,3.88,0,5.82,.02,2.38,1.1,3.57,3.27,3.63q1.81,.05,1.81,2.03c0,10.02,0,20.04,0,30.05q0,2.01-1.91,2.08c-2.01,.07-3.12,1.27-3.16,3.47-.03,1.57-.01,3.14-.01,4.71,0,3.43,.14,2.85-2.65,2.91-2.03,.04-3.15,1.24-3.19,3.43-.03,1.52-.01,3.04-.01,4.57q0,2.97-2.74,3.08c-1.95,.08-2.88,1.1-2.88,3.19,0,3.65,.03,7.29-.02,10.94-.02,1.42,.38,2.42,1.67,2.88h52.9c1.61-.61,2.29-1.66,2.1-3.24-.18-1.46-1.32-2.56-2.81-2.71-.59-.06-1.19-.04-1.78-.04H51.74c-2.97,0-5.93-.01-8.9,0-1.02,0-1.41-.44-1.44-1.56-.08-3.1-.11-3.1,2.69-3.1h113.79c2.91,0,2.94,.06,2.75,3.29-.05,.92-.38,1.36-1.23,1.34-.47,0-.93,0-1.4,0h-43.74c-.59,0-1.19-.02-1.78,.03-1.51,.13-2.65,1.17-2.89,2.63-.25,1.52,.32,2.55,1.85,3.33h52.89c1.02-.19,1.61-.83,1.78-1.94v-13.02c-.48-1.54-1.52-2.13-2.94-2.09-.13,0-.25,0-.38,0q-2.13-.03-2.13-2.41c0-1.8,.05-3.6-.02-5.4-.08-1.95-1.2-3.13-2.99-3.25-.34-.02-.68-.01-1.02-.02-1.78-.02-1.81-.04-1.82-2.05,0-1.8,.03-3.6-.01-5.4-.05-2.36-1.13-3.53-3.31-3.63-1.74-.07-1.76-.09-1.76-1.99,0-10.02,0-20.04,0-30.06,0-1.92,.01-1.92,1.73-2.03,2.24-.15,3.3-1.31,3.35-3.77,.04-1.89,0-3.79,.01-5.68,.02-1.45,.14-1.6,1.45-1.61Zm-88.29-27.49c10.63-7.69,21.27-15.37,31.87-23.09,.87-.63,1.44-.65,2.32,0,15.01,10.91,30.04,21.78,45.07,32.66,.3,.22,.6,.44,.94,.69-.37,.31-.71,.17-1.03,.17-7.42,.01-14.83-.01-22.24,.03-.91,0-1.19-.26-1.31-1.27-1.09-9.57-8.7-18.35-17.57-20.36-12.87-2.92-24.86,5.6-27.5,19.7-.31,1.67-.81,1.96-2.22,1.94-7.46-.08-14.91-.04-22.77-.04,5.02-3.63,9.72-7.03,14.42-10.43Zm55.92,35.07c0,2.03,.95,3.05,2.8,3.07q2.28,.02,2.28,2.5c0,10.39-.02,20.78,.02,31.17,0,1.04-.22,1.42-1.17,1.26-.46-.07-.93-.03-1.4-.01-1.52,.05-2.52,1.14-2.54,2.8-.02,2.4-.03,4.8,.01,7.21,.01,.79-.08,1.17-.94,1.1-1.09-.09-2.21-.08-3.3,0-.77,.06-.88-.29-.88-1.02,.03-3.6,.01-7.21,.01-10.8,0-3.14,0-6.28,0-9.42-.01-9.84-7.13-18.37-16.04-19.2-9.46-.88-17.84,6.15-19.35,16.2-.15,1.01-.22,2.01-.22,3.03,0,6.65-.02,13.3,.02,19.95,0,1.03-.2,1.39-1.17,1.27-1.29-.16-3.03,.59-3.76-.3-.64-.78-.18-2.63-.18-4.01-.01-1.34,.02-2.68-.01-4.02-.03-1.65-1.04-2.72-2.56-2.77q-2.52-.08-2.52-2.8c0-10.25,.02-20.5-.03-30.75,0-1.2,.31-1.56,1.33-1.37,.29,.05,.59,0,.89,0,1.95-.01,2.9-1.01,2.9-3.11,.01-2.36,.03-4.71-.01-7.06-.01-.7,.14-1.04,.83-.92,.2,.04,.42,.04,.63,0,1.61-.3,2.63,.39,3.68,1.82,9.36,12.74,27.26,12.27,36.2-.86,.5-.74,3.65-1.41,4.28-.91,.29,.23,.16,.6,.16,.9,.01,2.36,0,4.71,.01,7.07Zm5.07-7.25c-.02-.61,.16-.78,.71-.78,6.31,.02,12.63,.02,18.94,0,.55,0,.73,.16,.71,.77-.04,1.29-.05,2.59,0,3.88,.03,.73-.18,.93-.84,.92-3.13-.04-6.27-.02-9.41-.02s-6.1-.03-9.15,.02c-.79,.01-1.03-.19-.98-1.06,.07-1.24,.05-2.5,0-3.74Zm20.16,56.03c-.75,.91-2.54,.25-3.88,.28-2.08,.04-4.15,.01-6.23,.01-3.05,0-6.1-.03-9.15,.02-.72,.01-.94-.2-.91-.99,.07-1.47-.46-3.4,.21-4.29,.69-.91,2.54-.26,3.87-.27,5.08-.03,10.17,0,15.25-.03,.83,0,1.09,.22,1.04,1.13-.08,1.42,.45,3.34-.21,4.14Zm-15.07-28.25c0-5.45,.02-10.9-.02-16.35,0-.9,.21-1.15,1.04-1.13,2.75,.06,5.51,.05,8.26,0,.72-.01,.91,.21,.91,.99-.02,10.99-.02,21.98,0,32.97,0,.78-.19,1-.91,.99-2.75-.05-5.51-.06-8.26,0-.84,.02-1.05-.23-1.04-1.14,.04-5.45,.02-10.9,.02-16.34Zm-45.77,7.78c.04-7.6,4.95-13.4,11.88-14.1,6.2-.64,12.47,4.78,13.31,11.49,.16,1.28,.23,2.56,.23,3.86,0,6.14-.02,12.27,.02,18.41,0,.91-.22,1.14-1.04,1.13-3.94-.05-7.88-.02-11.82-.02s-7.71-.03-11.56,.02c-.81,0-1.05-.2-1.05-1.12,.04-6.55,0-13.11,.03-19.66Zm-35.42,15.51c.75-.91,2.54-.25,3.88-.28,2.03-.04,4.07-.01,6.1-.01,3.09,0,6.19,.03,9.28-.01,.71-.01,.94,.2,.91,.99-.07,1.47,.46,3.4-.21,4.28-.69,.92-2.54,.27-3.87,.27-5.08,.03-10.17-.01-15.25,.03-.83,0-1.09-.22-1.04-1.13,.09-1.42-.45-3.34,.21-4.14Zm19.96-46.58c-.75,.91-2.54,.25-3.88,.28-2.07,.04-4.15,.01-6.23,.01-3.05,0-6.1-.02-9.15,.02-.72,.01-.94-.2-.91-.99,.07-1.47-.46-3.4,.21-4.29,.69-.91,2.54-.26,3.87-.27,5.08-.03,10.17,0,15.25-.03,.83,0,1.09,.22,1.04,1.13-.09,1.42,.45,3.34-.21,4.14Zm-4.89,23.43c0,5.4-.02,10.81,.02,16.21,0,.9-.21,1.15-1.04,1.13-2.75-.06-5.51-.05-8.26,0-.72,.01-.91-.21-.91-.99,.02-10.99,.02-21.98,0-32.97,0-.78,.19-1,.91-.99,2.76,.04,5.51,.06,8.27,0,.83-.02,1.04,.23,1.04,1.13-.04,5.5-.02,10.99-.02,16.49Zm30.52-58.82c0,.23-.02,.47,0,.69,.16,1.33-.15,2.17-1.4,2.9-2.93,1.72-4.22,5.44-3.44,9.01,.8,3.63,3.57,6.08,7.23,6.4,2.12,.18,3.25,1.96,2.45,3.84-.6,1.4-2.01,1.93-3.44,1.31-.86-.37-1.45-1.08-2.08-1.76-1.19-1.29-2.61-1.38-3.72-.28-1.07,1.07-1.12,2.75-.07,4.08,1.03,1.31,2.25,2.38,3.71,3.06,.54,.26,.79,.51,.77,1.19-.05,1.38-.03,2.77,0,4.15,.01,.63-.05,.87-.76,.73-8.24-1.68-14.44-9.71-14.5-18.87-.07-9.28,6.07-17.39,14.46-19.18,.62-.13,.85-.09,.81,.66-.04,.69-.01,1.38-.01,2.07Zm8.65,5.06c-.84-.86-1.78-1.57-2.85-2.03-.5-.21-.75-.44-.73-1.07,.04-1.34,.04-2.68,0-4.02-.02-.71,.16-.81,.8-.67,7.58,1.59,13.28,8.24,14.26,16.69,1.1,9.43-4.23,18.21-12.69,20.91q-2.36,.75-2.36-1.93v-.56s0-.09,0-.14c-.22-1.66,.14-2.74,1.71-3.67,2.74-1.63,3.97-5.35,3.31-8.61-.71-3.46-3.25-6.01-6.46-6.49-.42-.06-.84-.14-1.26-.18-1.09-.09-1.79-.71-2.15-1.82-.34-1.07-.09-2.01,.6-2.79,.76-.85,1.72-.93,2.71-.6,.7,.23,1.23,.78,1.8,1.26,1.33,1.13,2.74,1.02,3.72-.23,.95-1.22,.79-2.81-.41-4.05Zm-65.11,19.56c-.83,0-1.09-.23-1.03-1.14,.08-1.42-.44-3.29,.21-4.15,.67-.89,2.46-.26,3.75-.27,10.68-.02,21.36,0,32.04-.03,1,0,1.38,.23,1.46,1.41,.1,1.35,.55,2.67,.88,4.16h-14.17c-7.72,0-15.43-.01-23.14,.02Zm111.76,68.12c1.15,0,1.54,.29,1.42,1.56-.12,1.27,.4,3.01-.2,3.74-.69,.86-2.3,.26-3.51,.26-16.82,.02-33.65,.01-50.48,.01s-35.26-.01-52.89,.03c-1.05,0-1.4-.25-1.3-1.41,.12-1.32-.41-3.12,.2-3.88,.71-.87,2.38-.27,3.64-.27,34.37-.01,68.74,0,103.11-.04Zm-29.62-68.14h-1.5c.43-1.66,.91-3.14,.99-4.71,.05-.91,.57-.84,1.14-.84,5.25,0,10.51,0,15.77,0,6.44,0,12.88,.02,19.33-.03,.94,0,1.25,.22,1.17,1.27-.11,1.37,.43,3.23-.21,4.01-.73,.89-2.46,.27-3.76,.27-10.97,.02-21.95,.01-32.93,.01Z"/><path class="cls-1" d="M103.28,165.72c.6,1.23,.3,2.69-.76,3.56-.23,.19-.49,.35-.74,.52-.1-.55,.37-.66,.62-.93,.98-1.07,1.08-2.45,.24-3.45-.83-.99-2.15-1.07-3.07-.19-.97,.93-1.02,2.27-.16,3.44,.24,.34,.73,.54,.58,1.12-.59-.71-1.42-1.22-1.53-2.34-.14-1.41,.59-2.73,1.79-3.13,1.16-.39,2.44,.2,3.02,1.39Z"/><path class="cls-2" d="M102.51,169.28c-.23,.19-.49,.35-.74,.52h-1.78c-.59-.71-1.42-1.22-1.53-2.34-.14-1.41,.59-2.73,1.79-3.13,1.16-.39,2.44,.2,3.02,1.39,.6,1.23,.3,2.69-.76,3.56Z"/></svg>