<?xml version="1.0" encoding="UTF-8"?><svg id="Capa_1" xmlns="http://www.w3.org/2000/svg" viewBox="0 0 201.88 197.5"><defs><style>.cls-1{fill:#da2a34;}.cls-2{fill:#e4675c;}</style></defs><path class="cls-1" d="M190.69,51.5c-.17,.15-.36,.29-.52,.45-12.83,12.82-25.65,25.64-38.48,38.45-.4,.4-.55,.78-.55,1.34,.01,15.07,0,30.14,.03,45.21,0,.67-.16,.85-.83,.84-3.06-.04-6.12-.04-9.18,0-.62,0-.77-.16-.77-.78,.02-15.07,0-30.14,.03-45.21,0-.64-.2-1.07-.64-1.52-12.75-12.73-25.49-25.46-38.22-38.21-.44-.44-.67-.47-1.12,0-12.76,12.78-25.54,25.55-38.33,38.3-.42,.42-.57,.83-.57,1.4,.01,15.07,0,30.14,.02,45.21,0,.63-.14,.82-.8,.82-3.08-.04-6.17-.04-9.25,0-.63,0-.76-.16-.76-.77,.02-15.09,.01-30.19,.03-45.28,0-.55-.14-.94-.54-1.34-12.86-12.82-25.7-25.66-38.55-38.48-.34-.34-.48-.67-.48-1.16,.02-4.65,.01-9.3,.01-13.95,0-.13,0-.27,0-.54,.29,.27,.49,.44,.68,.63,14.57,14.55,29.13,29.09,43.68,43.66,.48,.48,.69,.46,1.16-.01,14.57-14.58,29.15-29.14,43.72-43.72,.43-.43,.63-.44,1.07,0,14.56,14.58,29.14,29.15,43.7,43.74,.49,.49,.7,.46,1.17-.01,14.51-14.54,29.04-29.06,43.57-43.57,.23-.23,.39-.54,.74-.62v15.14Z"/><path class="cls-1" d="M190.69,71.54c-.28,0-.38,.25-.53,.41-7.57,7.56-15.13,15.13-22.71,22.68-.38,.38-.53,.75-.53,1.28,.01,13.66,0,27.33,.03,40.99,0,.71-.18,.89-.89,.88-3.06-.04-6.12-.04-9.18,0-.6,0-.72-.17-.72-.74,.02-15.25,.01-30.5,0-45.76,0-.36,.06-.65,.34-.93,11.31-11.29,22.61-22.59,33.91-33.88,.08-.08,.18-.14,.27-.21v15.28Z"/><path class="cls-1" d="M57.62,35.65c.86,.19,1.73,.33,2.58,.56,7.13,1.93,11.81,8.49,11.44,15.98-.35,7.05-5.8,13.11-12.88,14.32-8.64,1.48-16.79-4.4-18.07-13.05-1.27-8.59,4.88-16.67,13.47-17.69,.14-.02,.28,0,.38-.13h3.09Z"/><path class="cls-1" d="M147.36,35.65c.84,.18,1.68,.32,2.51,.55,7.09,1.92,11.75,8.3,11.51,15.71-.23,7-5.48,13.12-12.47,14.55-8.96,1.83-17.68-4.61-18.54-13.69-.8-8.52,5.09-15.89,13.6-17,.11-.01,.21-.08,.31-.12,1.03,0,2.06,0,3.09,0Z"/><path class="cls-1" d="M67.1,114.15c0-7.57,0-15.14,0-22.71,0-.5,.11-.86,.48-1.23,10.99-10.95,21.96-21.92,32.93-32.9,.41-.41,.61-.35,.97,.02,10.96,10.98,21.94,21.95,32.92,32.91,.34,.34,.48,.68,.48,1.16-.01,15.19-.01,30.37,0,45.56,0,.62-.13,.83-.8,.82-3.08-.04-6.17-.04-9.25,0-.65,0-.74-.2-.74-.78,.02-13.71,.01-27.43,.02-41.14,0-.48-.11-.82-.46-1.16-7.4-7.37-14.79-14.76-22.16-22.16-.42-.42-.62-.39-1.02,.01-7.38,7.39-14.77,14.77-22.17,22.15-.35,.34-.47,.69-.47,1.17,.01,13.69,0,27.38,.03,41.07,0,.66-.14,.86-.83,.85-3.06-.04-6.12-.04-9.18,0-.64,0-.76-.19-.76-.79,.02-7.62,.01-15.23,.01-22.85Z"/><path class="cls-1" d="M11.42,56.2c.1,.18,.17,.39,.32,.53,11.14,11.14,22.28,22.27,33.43,33.39,.42,.42,.57,.83,.57,1.4-.01,15.14-.02,30.28,0,45.42,0,.67-.14,.86-.83,.85-3.04-.04-6.08-.04-9.11,0-.7,0-.83-.2-.83-.86,.02-13.64,.01-27.29,.03-40.93,0-.58-.16-.99-.58-1.41-7.58-7.55-15.15-15.12-22.73-22.67-.36-.36-.5-.71-.5-1.22,.02-4.56,.01-9.11,.01-13.67,0-.22,0-.45,0-.67l.23-.16Z"/><path class="cls-2" d="M78.25,161.84c-2.82,.02-5.3-.41-7.58-1.68-2.89-1.6-4.6-4-4.63-7.38-.03-3.45,1.67-5.94,4.6-7.64,1.66-.96,3.48-1.47,5.38-1.63,3.46-.3,6.82,0,9.86,1.87,5.07,3.13,5.68,9.81,1.24,13.63-1.62,1.39-3.54,2.14-5.61,2.53-1.15,.22-2.31,.33-3.25,.29Z"/><path class="cls-1" d="M26.51,149.75c0,2.78,0,5.49,0,8.19,0,.98-.02,1.96,0,2.94,0,.38-.07,.53-.49,.53-1.35-.03-2.71-.02-4.07,0-.41,0-.5-.14-.5-.52,.01-5.51,.01-11.02,0-16.54,0-.35,.08-.5,.47-.49,1.52,.02,3.04,.02,4.56,0,.41,0,.57,.27,.77,.51,3.07,3.55,6.14,7.1,9.21,10.65,.15,.17,.31,.34,.49,.54,.22-.25,.13-.52,.13-.75,0-3.43,.02-6.87,0-10.3,0-.53,.14-.67,.66-.66,1.28,.04,2.57,.03,3.85,0,.43,0,.56,.11,.55,.55-.01,5.49-.01,10.98,0,16.47,0,.45-.14,.55-.56,.54-1.4-.02-2.8-.03-4.21,0-.47,.01-.77-.15-1.07-.5-3.06-3.56-6.13-7.11-9.2-10.66-.15-.17-.25-.39-.6-.51Z"/><path class="cls-1" d="M109.3,155.48v-2.22c0-2.9,.01-5.79-.01-8.69,0-.52,.09-.73,.67-.71,1.24,.05,2.48,.04,3.71,0,.5-.01,.68,.08,.68,.64-.02,5.44-.02,10.88,0,16.33,0,.44-.1,.6-.58,.59-1.38-.03-2.76-.04-4.14,0-.49,.01-.81-.14-1.13-.51-3.06-3.56-6.13-7.11-9.2-10.66-.14-.17-.24-.4-.5-.45-.15,.22-.07,.46-.07,.67,0,3.43-.02,6.87,0,10.3,0,.53-.14,.67-.66,.65-1.28-.04-2.57-.03-3.85,0-.42,0-.56-.1-.56-.54,.02-5.49,.02-10.98,0-16.47,0-.44,.14-.55,.56-.54,1.4,.02,2.8,.03,4.21,0,.44,0,.72,.13,1.01,.47,3.04,3.54,6.1,7.07,9.16,10.61,.18,.21,.37,.41,.55,.61l.15-.06Z"/><path class="cls-1" d="M160.32,143.87c-.38,.74-.71,1.4-1.05,2.05-2.57,4.97-5.15,9.93-7.7,14.9-.22,.42-.44,.61-.94,.6-1.89-.03-3.78-.02-5.67,0-.33,0-.53-.06-.7-.4-2.82-5.62-5.66-11.23-8.49-16.84-.03-.06-.04-.13-.08-.3h.89c1.47,0,2.94,.04,4.41-.02,.6-.02,.91,.16,1.17,.7,1.77,3.65,3.57,7.28,5.37,10.91,.11,.23,.23,.45,.35,.67,.26-.1,.28-.33,.37-.51,1.87-3.73,3.74-7.45,5.59-11.19,.22-.44,.47-.59,.95-.58,1.82,.03,3.63,.01,5.55,.01Z"/><path class="cls-1" d="M128.59,149c-1.36,2.83-2.66,5.51-3.95,8.19-.61,1.26-1.23,2.51-1.82,3.78-.15,.32-.32,.44-.68,.44-1.8-.02-3.6,0-5.42,0-.05-.27,.12-.45,.22-.64,2.71-5.44,5.43-10.88,8.13-16.33,.22-.45,.48-.58,.96-.58,1.78,.03,3.55,.03,5.33,0,.44,0,.66,.15,.84,.53,2.65,5.48,5.31,10.95,7.98,16.41,.22,.45,.24,.63-.36,.61-1.54-.04-3.09-.04-4.63,0-.52,.01-.77-.15-.99-.62-1.76-3.76-3.55-7.5-5.34-11.24-.07-.14-.14-.29-.27-.56Z"/><path class="cls-1" d="M46.82,152.63c0-2.71,.02-5.42-.01-8.12,0-.53,.13-.65,.65-.65,5.3,.02,10.6,.02,15.9,0,.47,0,.67,.09,.64,.6-.05,.67-.04,1.36,0,2.03,.03,.49-.14,.62-.62,.62-3.48-.02-6.96,0-10.44-.03-.63,0-.8,.16-.76,.77,.06,.88,.04,1.77,0,2.66-.02,.51,.11,.67,.65,.67,2.97-.03,5.93,0,8.9-.03,.53,0,.76,.1,.7,.68-.05,.53-.06,1.08,0,1.61,.07,.62-.19,.71-.74,.71-2.92-.03-5.84,0-8.76-.03-.57,0-.76,.13-.75,.73,.04,1.98,0,3.97,.03,5.95,0,.5-.14,.62-.62,.61-1.4-.03-2.8-.03-4.2,0-.48,.01-.57-.16-.56-.59,.02-2.73,0-5.46,0-8.19Z"/><path class="cls-1" d="M180.59,143.87c3.08,0,6.17,.02,9.25-.02,.65,0,.79,.19,.74,.78-.05,.63-.04,1.26,0,1.89,.03,.45-.11,.59-.58,.59-2.03-.03-4.07,0-6.1-.02-.52,0-.66,.12-.66,.65,.02,4.32,0,8.64,.03,12.97,0,.6-.17,.73-.74,.71-1.33-.04-2.66-.04-4,0-.52,.01-.66-.12-.66-.65,.02-4.3,0-8.6,.03-12.9,0-.67-.2-.8-.82-.79-1.96,.04-3.93,0-5.89,.03-.56,.01-.67-.18-.64-.67,.04-.65,.04-1.31,0-1.96-.03-.49,.13-.63,.62-.62,3.13,.02,6.26,.01,9.39,.01Z"/><path class="cls-1" d="M11.38,152.57c0-2.69,.02-5.37-.01-8.06,0-.54,.15-.67,.67-.65,1.4,.04,2.8,.03,4.21,0,.42,0,.56,.1,.56,.54-.02,5.49-.02,10.98,0,16.47,0,.44-.13,.55-.55,.54-1.4-.02-2.8-.03-4.21,0-.51,.01-.68-.11-.67-.65,.03-2.73,.01-5.47,.01-8.2Z"/><path class="cls-1" d="M162.42,152.57c0-2.69,.02-5.37-.01-8.06,0-.53,.14-.67,.67-.66,1.4,.04,2.8,.03,4.21,0,.42,0,.56,.1,.55,.54-.02,5.49-.02,10.98,0,16.47,0,.44-.13,.55-.55,.54-1.4-.02-2.81-.04-4.21,0-.6,.02-.67-.22-.67-.72,.02-2.71,0-5.42,0-8.13Z"/></svg>