<?xml version="1.0" encoding="UTF-8"?><svg id="Capa_1" xmlns="http://www.w3.org/2000/svg" viewBox="0 0 156.5 54"><defs><style>.cls-1{fill:#fff;}.cls-2{fill:#f60;}.cls-3{fill:#007665;}.cls-4{fill:#143960;}</style></defs><g><g><path class="cls-1" d="M54.1,10c.6-1,1.4-1.8,2.3-2.4,1-.6,2.1-.9,3.3-.9,1.4,0,2.7,.3,3.7,1,1.1,.7,1.8,1.7,2.3,2.9h-2c-.4-.8-.9-1.4-1.6-1.8-.7-.4-1.5-.6-2.4-.6s-1.7,.2-2.4,.6c-.7,.4-1.3,1-1.7,1.8s-.6,1.7-.6,2.7,.2,1.9,.6,2.7c.4,.8,1,1.4,1.7,1.8s1.5,.6,2.4,.6,1.8-.2,2.4-.6c.7-.4,1.2-1,1.6-1.8h2c-.5,1.2-1.3,2.2-2.3,2.9-1.1,.7-2.3,1-3.7,1-1.2,0-2.3-.3-3.3-.8-1-.6-1.8-1.4-2.3-2.4-.6-1-.9-2.1-.9-3.4,0-1.1,.3-2.3,.9-3.3Z"/><path class="cls-1" d="M59.7,20.1c-1.2,0-2.3-.3-3.3-.9s-1.8-1.4-2.4-2.4c-.6-1-.9-2.2-.9-3.4,0-1.3,.3-2.4,.9-3.4h0c.6-1,1.4-1.8,2.4-2.4s2.1-.9,3.3-.9c1.4,0,2.7,.3,3.7,1,1.1,.7,1.8,1.7,2.3,2.9v.1h-2.2c-.4-.8-.9-1.4-1.5-1.8-.7-.4-1.5-.6-2.4-.6s-1.7,.2-2.4,.6c-.7,.4-1.3,1-1.7,1.8s-.6,1.7-.6,2.7,.2,1.9,.6,2.7c.4,.8,1,1.4,1.7,1.8s1.5,.6,2.4,.6,1.7-.2,2.4-.6,1.2-1,1.5-1.8h2.2v.1c-.5,1.2-1.3,2.2-2.3,2.9-1,.7-2.3,1-3.7,1Zm0-13.3c-1.2,0-2.3,.3-3.3,.8-1,.6-1.8,1.4-2.3,2.4h0c-.6,1-.8,2.1-.8,3.4s.3,2.4,.8,3.4c.6,1,1.3,1.8,2.3,2.3,1,.6,2.1,.8,3.3,.8,1.4,0,2.6-.3,3.7-1,1-.7,1.8-1.6,2.3-2.8h-1.9c-.4,.8-.9,1.4-1.6,1.8-.7,.4-1.5,.6-2.5,.6-.9,0-1.7-.2-2.5-.6-.7-.4-1.3-1-1.7-1.8-.4-.8-.6-1.7-.6-2.7s.2-2,.6-2.8c.4-.8,1-1.4,1.7-1.8,.7-.4,1.6-.6,2.5-.6,1,0,1.8,.2,2.5,.6,.7,.4,1.2,1,1.6,1.8h1.9c-.5-1.2-1.2-2.1-2.3-2.8-1.1-.6-2.3-1-3.7-1Z"/></g><g><path class="cls-1" d="M70.1,19.4c-.8-.4-1.4-1.1-1.8-1.9s-.7-1.7-.7-2.8c0-1,.2-2,.7-2.8s1.1-1.4,1.9-1.8c.8-.4,1.7-.6,2.6-.6,1,0,1.8,.2,2.6,.6,.8,.4,1.4,1,1.9,1.8s.7,1.7,.7,2.8-.2,2-.7,2.8-1.1,1.4-1.9,1.9c-.8,.4-1.7,.7-2.6,.7-1.1,0-1.9-.2-2.7-.7Zm4.3-1.2c.5-.3,1-.7,1.3-1.3,.3-.6,.5-1.3,.5-2.1s-.2-1.5-.5-2.1-.7-1-1.3-1.3c-.5-.3-1.1-.4-1.7-.4s-1.2,.1-1.7,.4c-.5,.3-.9,.7-1.2,1.3-.3,.6-.5,1.3-.5,2.1s.2,1.5,.5,2.1,.7,1,1.2,1.3,1.1,.4,1.7,.4,1.2-.1,1.7-.4Z"/><path class="cls-1" d="M72.7,20.2c-1,0-1.8-.2-2.6-.7-.8-.4-1.4-1.1-1.9-1.9-.4-.8-.7-1.8-.7-2.8s.2-2,.7-2.8,1.1-1.4,1.9-1.9c.8-.4,1.7-.7,2.7-.7s1.9,.2,2.7,.7c.8,.4,1.4,1.1,1.9,1.9,.5,.8,.7,1.7,.7,2.8s-.2,2-.7,2.8c-.5,.8-1.1,1.4-1.9,1.9-.9,.4-1.8,.7-2.8,.7Zm.1-10.6c-1,0-1.8,.2-2.6,.6-.8,.4-1.4,1-1.8,1.8s-.7,1.7-.7,2.7,.2,2,.7,2.8c.4,.8,1,1.4,1.8,1.8h0c.8,.4,1.6,.6,2.6,.6s1.8-.2,2.6-.6c.8-.4,1.4-1,1.9-1.8s.7-1.7,.7-2.8c0-1-.2-2-.7-2.7-.4-.8-1.1-1.4-1.8-1.8-.9-.4-1.8-.6-2.7-.6Zm-.1,9.1c-.6,0-1.2-.1-1.7-.4s-.9-.7-1.2-1.3c-.3-.6-.5-1.3-.5-2.1s.2-1.5,.5-2.1,.7-1,1.3-1.3c.5-.3,1.1-.4,1.7-.4s1.2,.1,1.7,.4c.5,.3,1,.7,1.3,1.3s.5,1.3,.5,2.1-.2,1.5-.5,2.1-.8,1-1.3,1.3h0c-.6,.2-1.2,.4-1.8,.4Zm.1-7.6c-.6,0-1.2,.1-1.7,.4-.5,.3-.9,.7-1.2,1.3-.3,.6-.5,1.3-.5,2.1s.2,1.5,.4,2.1c.3,.6,.7,1,1.2,1.3s1.1,.4,1.6,.4c.6,0,1.2-.1,1.7-.4h0c.5-.3,.9-.7,1.3-1.3,.3-.6,.5-1.3,.5-2.1s-.2-1.5-.5-2.1-.7-1-1.2-1.3c-.5-.3-1.1-.4-1.6-.4Z"/></g><g><path class="cls-1" d="M94.6,10c.6,.3,1.1,.8,1.5,1.5s.5,1.5,.5,2.4v6h-1.7v-5.8c0-1-.3-1.8-.8-2.3s-1.2-.8-2-.8c-.9,0-1.6,.3-2.1,.8-.5,.6-.8,1.4-.8,2.5v5.6h-1.7v-5.8c0-1-.3-1.8-.8-2.3s-1.2-.8-2-.8c-.9,0-1.6,.3-2.1,.8-.5,.6-.8,1.4-.8,2.5v5.6h-1.7V9.7h1.7v1.5c.3-.5,.8-.9,1.4-1.2s1.2-.4,1.9-.4c.9,0,1.6,.2,2.3,.6,.7,.4,1.1,1,1.5,1.7,.3-.7,.8-1.3,1.4-1.7,.7-.4,1.4-.6,2.2-.6,.7-.1,1.5,.1,2.1,.4Z"/><path class="cls-1" d="M96.7,20h-1.8v-5.8c0-1-.2-1.8-.7-2.3s-1.2-.8-2-.8c-.9,0-1.6,.3-2.1,.8-.5,.6-.8,1.4-.8,2.4v5.7h-1.8v-5.8c0-1-.2-1.8-.7-2.3s-1.2-.8-2-.8c-.9,0-1.6,.3-2.1,.8-.5,.6-.8,1.4-.8,2.4v5.7h-1.8V9.7h1.8v1.3c.3-.5,.8-.8,1.3-1.1,.6-.3,1.2-.4,1.9-.4,.9,0,1.6,.2,2.3,.6,.6,.4,1.1,.9,1.4,1.6,.3-.7,.8-1.2,1.4-1.6,.7-.4,1.4-.6,2.2-.6s1.5,.2,2.2,.5h0c.6,.3,1.1,.8,1.5,1.5s.5,1.5,.5,2.4v6.1h.1Zm-1.7-.1h1.6v-6c0-.9-.2-1.7-.5-2.4-.4-.6-.8-1.1-1.4-1.5-.6-.3-1.3-.5-2.1-.5s-1.5,.2-2.2,.6c-.6,.4-1.1,.9-1.4,1.6l-.2,.3-.1-.1c-.3-.7-.8-1.3-1.4-1.7s-1.4-.6-2.2-.6c-.7,0-1.3,.1-1.8,.4-.6,.3-1,.7-1.3,1.2l-.1,.2v-1.6h-1.6v10.1h1.6v-5.6c0-1.1,.3-1.9,.8-2.5s1.3-.9,2.2-.9,1.6,.3,2.1,.8,.8,1.4,.8,2.4v5.7h1.6v-5.6c0-1.1,.3-1.9,.8-2.5s1.3-.9,2.2-.9,1.6,.3,2.1,.8,.8,1.4,.8,2.4v5.9h-.3Z"/></g><g><path class="cls-1" d="M108.6,15.5h-8.2c.1,1,.4,1.8,1,2.4s1.4,.8,2.3,.8c.7,0,1.3-.2,1.8-.5s.8-.8,1-1.4h1.8c-.3,1-.8,1.8-1.6,2.4-.8,.6-1.8,.9-3.1,.9-1,0-1.8-.2-2.6-.7-.8-.4-1.4-1.1-1.8-1.9s-.7-1.7-.7-2.8,.2-2,.6-2.8,1-1.4,1.8-1.8c.8-.4,1.6-.6,2.6-.6s1.8,.2,2.6,.6c.7,.4,1.3,1,1.7,1.7,.4,.7,.6,1.6,.6,2.5,.3,.5,.3,.8,.2,1.2Zm-2.1-3.1c-.3-.5-.7-.8-1.2-1.1-.5-.2-1-.4-1.6-.4-.9,0-1.6,.3-2.2,.8s-.9,1.3-1,2.3h6.4c0-.6-.1-1.1-.4-1.6Z"/><path class="cls-1" d="M103.8,20.2c-1,0-1.9-.2-2.6-.7-.8-.4-1.4-1.1-1.8-1.9s-.7-1.8-.7-2.8c0-1.1,.2-2,.6-2.8s1-1.4,1.8-1.9c.8-.4,1.7-.7,2.7-.7s1.9,.2,2.6,.6c.8,.4,1.3,1,1.7,1.8,.4,.7,.6,1.6,.6,2.5,0,.3,0,.7-.1,1v.1h-8.2c.1,1,.4,1.7,1,2.3,.6,.6,1.4,.8,2.2,.8,.7,0,1.3-.2,1.8-.5s.8-.8,1-1.3h2v.1c-.3,1-.8,1.8-1.7,2.4-.7,.6-1.7,1-2.9,1Zm0-10.6c-1,0-1.9,.2-2.6,.6-.8,.4-1.3,1-1.8,1.8-.4,.8-.6,1.7-.6,2.7s.2,2,.6,2.8,1,1.4,1.8,1.8,1.6,.6,2.6,.6c1.2,0,2.2-.3,3-.9s1.3-1.4,1.6-2.3h-1.7c-.2,.6-.6,1-1,1.4-.5,.3-1.1,.5-1.9,.5-.9,0-1.7-.3-2.3-.9-.6-.6-1-1.4-1.1-2.4v-.1h8.2c0-.3,.1-.7,.1-1,0-.9-.2-1.8-.6-2.5s-1-1.3-1.7-1.7c-.8-.2-1.7-.4-2.6-.4Zm3.2,4.5h-6.6v-.1c.1-1,.4-1.8,1.1-2.3,.6-.6,1.4-.8,2.2-.8,.6,0,1.2,.1,1.7,.4,.5,.2,.9,.6,1.2,1.1h0c.2,.5,.4,1,.4,1.7h0Zm-6.4-.1h6.3c0-.6-.1-1.1-.4-1.6s-.7-.8-1.1-1c-.5-.2-1-.4-1.6-.4-.8,0-1.6,.3-2.1,.8-.7,.6-1.1,1.3-1.1,2.2Z"/></g><g><path class="cls-1" d="M113.9,10c.6-.3,1.2-.5,2-.5v1.8h-.4c-1.9,0-2.9,1-2.9,3.1v5.6h-1.7V9.7h1.7v1.7c.3-.6,.7-1.1,1.3-1.4Z"/><path class="cls-1" d="M112.7,20h-1.8V9.7h1.8v1.5c.3-.5,.7-.9,1.2-1.2h0c.6-.3,1.3-.5,2.1-.5h.1v1.9h-.5c-1.9,0-2.8,1-2.8,3v5.6h-.1Zm-1.7-.1h1.6v-5.5c0-2.1,1-3.2,2.9-3.2h.4v-1.6c-.8,0-1.4,.2-1.9,.5h0c-.5,.3-1,.8-1.3,1.3l-.1,.2v-1.8h-1.6v10.1Z"/></g><g><path class="cls-1" d="M117.9,12c.4-.8,1-1.4,1.8-1.8,.8-.4,1.6-.7,2.6-.7,1.3,0,2.3,.3,3.1,.9,.8,.6,1.4,1.5,1.6,2.5h-1.8c-.2-.6-.5-1.1-1-1.5s-1.1-.5-1.9-.5c-1,0-1.8,.3-2.3,1-.6,.7-.9,1.6-.9,2.8s.3,2.2,.9,2.9,1.4,1,2.3,1c.7,0,1.4-.2,1.9-.5s.8-.8,1-1.5h1.8c-.3,1-.8,1.9-1.6,2.5-.8,.6-1.8,.9-3.1,.9-1,0-1.8-.2-2.6-.7-.8-.4-1.3-1-1.8-1.8-.4-.8-.6-1.7-.6-2.8-.1-1,.2-1.9,.6-2.7Z"/><path class="cls-1" d="M122.2,20.2c-1,0-1.9-.2-2.6-.7-.8-.4-1.4-1.1-1.8-1.9s-.6-1.8-.6-2.8c0-1.1,.2-2,.6-2.8h0c.4-.8,1-1.4,1.8-1.9,.8-.4,1.6-.7,2.6-.7,1.3,0,2.3,.3,3.1,.9,.8,.6,1.4,1.5,1.6,2.6v.1h-2c-.2-.6-.5-1.1-1-1.4-.5-.4-1.1-.5-1.8-.5-.9,0-1.7,.3-2.3,1-.6,.7-.9,1.6-.9,2.8s.3,2.2,.9,2.8c.6,.7,1.4,1,2.3,1,.7,0,1.3-.2,1.8-.5s.8-.8,1-1.5h2v.1c-.3,1.1-.8,1.9-1.7,2.5-.7,.5-1.7,.9-3,.9Zm-4.3-8.1c-.4,.8-.6,1.7-.6,2.7,0,1.1,.2,2,.6,2.8,.4,.8,1,1.4,1.7,1.8s1.6,.6,2.6,.6c1.2,0,2.2-.3,3-.9s1.3-1.4,1.6-2.4h-1.7c-.2,.6-.5,1.1-1,1.5s-1.1,.5-1.9,.5c-1,0-1.8-.3-2.4-1s-.9-1.7-.9-2.9,.3-2.2,.9-2.9,1.4-1,2.4-1c.8,0,1.4,.2,1.9,.6,.5,.4,.8,.8,1,1.5h1.7c-.3-1-.8-1.8-1.6-2.4-.8-.6-1.8-.9-3.1-.9-1,0-1.8,.2-2.6,.6-.6,.4-1.2,1-1.6,1.8h0Z"/></g><g><path class="cls-1" d="M129.2,7.7c-.2-.2-.3-.5-.3-.8s.1-.6,.3-.8,.5-.3,.8-.3,.6,.1,.8,.3c.2,.2,.3,.5,.3,.8s-.1,.6-.3,.8c-.2,.2-.5,.3-.8,.3-.3,.1-.5-.1-.8-.3Zm1.7,2v10.2h-1.7V9.7h1.7Z"/><path class="cls-1" d="M130.9,20h-1.8V9.7h1.8v10.3Zm-1.7-.1h1.6V9.8h-1.6v10.1Zm.9-11.8c-.3,0-.6-.1-.9-.4s-.4-.5-.4-.9c0-.3,.1-.6,.4-.9s.5-.4,.9-.4c.3,0,.6,.1,.8,.4,.2,.2,.3,.5,.3,.9,0,.3-.1,.6-.3,.9-.2,.3-.5,.4-.8,.4Zm0-2.3c-.3,0-.6,.1-.8,.3-.2,.2-.3,.5-.3,.8s.1,.6,.3,.8c.2,.2,.5,.3,.8,.3s.5-.1,.7-.3c.2-.2,.3-.5,.3-.8s-.1-.6-.3-.8-.4-.3-.7-.3Z"/></g><g><path class="cls-1" d="M133.8,12c.4-.8,1-1.4,1.7-1.8,.7-.4,1.6-.7,2.5-.7s1.7,.2,2.3,.6c.7,.4,1.1,.9,1.5,1.5v-1.9h1.7v10.2h-1.7v-1.9c-.3,.6-.8,1.1-1.5,1.5s-1.4,.6-2.3,.6-1.7-.2-2.5-.7c-.7-.4-1.3-1.1-1.7-1.9s-.6-1.7-.6-2.8c-.1-1,.1-1.9,.6-2.7Zm7.5,.8c-.3-.6-.7-1-1.3-1.3-.5-.3-1.1-.5-1.7-.5s-1.2,.1-1.7,.4c-.5,.3-.9,.7-1.2,1.3s-.5,1.2-.5,2,.2,1.5,.5,2c.3,.6,.7,1,1.2,1.3s1.1,.5,1.7,.5,1.2-.2,1.7-.5,.9-.7,1.3-1.3c.3-.6,.5-1.3,.5-2s-.2-1.3-.5-1.9Z"/><path class="cls-1" d="M138,20.2c-.9,0-1.8-.2-2.5-.7s-1.3-1.1-1.8-1.9c-.4-.8-.6-1.7-.6-2.8,0-1,.2-2,.6-2.8h0c.4-.8,1-1.4,1.8-1.9,.7-.4,1.6-.7,2.5-.7s1.7,.2,2.4,.6c.6,.3,1.1,.8,1.4,1.3v-1.6h1.8v10.3h-1.8v-1.7c-.3,.5-.8,1-1.4,1.3-.8,.4-1.5,.6-2.4,.6Zm-4.2-8.1c-.4,.8-.6,1.7-.6,2.7s.2,1.9,.6,2.7c.4,.8,1,1.4,1.7,1.9,.7,.4,1.5,.7,2.4,.7s1.6-.2,2.3-.6,1.1-.9,1.5-1.5l.1-.2v2.1h1.6V9.8h-1.6v2l-.1-.2c-.3-.6-.8-1.1-1.4-1.4-.6-.4-1.4-.6-2.3-.6s-1.7,.2-2.4,.6c-.8,.5-1.4,1.1-1.8,1.9h0Zm4.5,6.6c-.6,0-1.2-.2-1.8-.5-.5-.3-1-.8-1.3-1.3-.3-.6-.5-1.3-.5-2.1s.2-1.5,.5-2c.3-.6,.7-1,1.3-1.3,.5-.3,1.1-.5,1.8-.5,.6,0,1.2,.2,1.8,.5,.5,.3,1,.8,1.3,1.3h0c.3,.6,.5,1.3,.5,2,0,.8-.2,1.5-.5,2.1s-.7,1-1.3,1.3c-.5,.3-1.1,.5-1.8,.5Zm0-7.6c-.6,0-1.2,.1-1.7,.4-.5,.3-.9,.7-1.2,1.3s-.5,1.2-.5,2,.2,1.4,.5,2c.3,.6,.7,1,1.2,1.3s1.1,.4,1.7,.4,1.2-.2,1.7-.4c.5-.3,.9-.7,1.2-1.3,.3-.6,.5-1.2,.5-2s-.2-1.4-.5-2-.7-1-1.2-1.3c-.5-.3-1.1-.4-1.7-.4Z"/></g><g><path class="cls-1" d="M148.1,6.1v13.8h-1.7V6.1h1.7Z"/><path class="cls-1" d="M148.1,20h-1.8V6.1h1.8v13.9Zm-1.7-.1h1.6V6.2h-1.6v13.7Z"/></g></g><g><g><path class="cls-1" d="M51.7,31.9c-.7-1.4-1.7-2.5-3-3.3s-2.8-1.2-4.5-1.2-3.3,.4-4.6,1.2c-1.4,.8-2.5,1.9-3.2,3.4-.8,1.5-1.2,3.2-1.2,5.1s.4,3.6,1.2,5.1,1.9,2.6,3.2,3.4c1.4,.8,2.9,1.2,4.6,1.2,2.4,0,4.4-.7,5.9-2.2,1.6-1.4,2.5-3.4,2.7-5.8h-9.8v-2.6h13.2v2.5c-.2,2-.8,3.9-1.9,5.6-1.1,1.7-2.5,3-4.3,4s-3.7,1.5-5.9,1.5-4.4-.5-6.2-1.6c-1.9-1.1-3.4-2.6-4.5-4.5s-1.6-4.1-1.6-6.5,.5-4.6,1.6-6.5c1.1-1.9,2.6-3.4,4.5-4.5s4-1.6,6.2-1.6c2.6,0,4.9,.6,6.9,1.9s3.5,3.1,4.4,5.5h-3.7v-.1Z"/><path class="cls-1" d="M44.2,50.6c-2.5,0-4.7-.6-6.8-1.7-2-1.2-3.7-2.8-4.9-4.9-1.2-2.1-1.8-4.4-1.8-7s.6-4.9,1.8-7c1.2-2.1,2.8-3.7,4.9-4.9,2-1.2,4.3-1.7,6.8-1.7,2.8,0,5.3,.7,7.5,2.1s3.8,3.4,4.8,6l.6,1.5h-6.1l-.3-.6c-.6-1.3-1.4-2.2-2.6-2.9-1.1-.7-2.4-1-4-1-1.5,0-2.9,.3-4.1,1-1.2,.7-2.1,1.7-2.8,3-.7,1.3-1.1,2.8-1.1,4.6,0,1.7,.4,3.3,1.1,4.6,.7,1.3,1.6,2.3,2.8,2.9,1.2,.7,2.6,1,4.1,1,2.1,0,3.8-.6,5.2-1.9,1.1-1,1.8-2.3,2.2-4h-9.5v-4.7h15.4v3.7c-.2,2.2-.9,4.2-2.1,6-1.2,1.8-2.7,3.3-4.7,4.3-1.9,1.1-4,1.6-6.4,1.6Zm0-25.1c-2.1,0-4,.5-5.7,1.5s-3.1,2.3-4.1,4.1c-1,1.7-1.5,3.7-1.5,5.9s.5,4.2,1.5,5.9,2.4,3.1,4.1,4.1c1.7,1,3.6,1.5,5.7,1.5s3.8-.4,5.4-1.3c1.6-.9,2.9-2.1,3.9-3.6s1.6-3.2,1.7-5v-1.3h-11.1v.5h9.9v1c-.3,2.7-1.3,4.9-3.1,6.5s-4,2.4-6.7,2.4c-1.9,0-3.6-.4-5.2-1.3-1.5-.9-2.8-2.2-3.7-3.8s-1.3-3.5-1.3-5.6,.4-4,1.3-5.6c.9-1.6,2.1-2.9,3.7-3.8,1.5-.9,3.3-1.3,5.2-1.3s3.6,.5,5.1,1.3c1.3,.8,2.3,1.8,3.1,3.2h1.5c-.8-1.4-1.9-2.6-3.3-3.5-1.8-1.2-4-1.8-6.4-1.8Z"/></g><g><path class="cls-1" d="M65.4,48c-1.9-1.1-3.4-2.6-4.5-4.5s-1.6-4.1-1.6-6.5,.5-4.6,1.6-6.5c1.1-1.9,2.6-3.4,4.5-4.5s4-1.6,6.2-1.6,4.4,.5,6.3,1.6,3.4,2.6,4.4,4.5c1.1,1.9,1.6,4.1,1.6,6.5s-.5,4.6-1.6,6.5-2.6,3.4-4.4,4.5c-1.9,1.1-4,1.6-6.3,1.6s-4.3-.6-6.2-1.6Zm10.9-2.4c1.4-.8,2.5-1.9,3.2-3.4,.8-1.5,1.2-3.2,1.2-5.2s-.4-3.7-1.2-5.2c-.8-1.5-1.9-2.6-3.2-3.4-1.4-.8-2.9-1.2-4.7-1.2-1.7,0-3.3,.4-4.7,1.2-1.4,.8-2.4,1.9-3.2,3.4-.7,1.5-1.1,3.2-1.1,5.2s.4,3.7,1.2,5.2,1.9,2.6,3.2,3.4c1.4,.8,2.9,1.2,4.6,1.2,1.8,0,3.4-.4,4.7-1.2Z"/><path class="cls-1" d="M71.7,50.7c-2.5,0-4.7-.6-6.8-1.7-2-1.2-3.7-2.8-4.9-4.9-1.2-2.1-1.8-4.4-1.8-7s.6-4.9,1.8-7c1.2-2.1,2.8-3.7,4.9-4.9,2-1.2,4.3-1.7,6.8-1.7s4.8,.6,6.8,1.7c2,1.2,3.7,2.8,4.9,4.9,1.2,2.1,1.8,4.4,1.8,7s-.6,5-1.8,7c-1.2,2.1-2.8,3.7-4.9,4.9-2,1.1-4.3,1.7-6.8,1.7Zm0-25.2c-2.1,0-4,.5-5.7,1.5s-3.1,2.3-4.1,4.1c-1,1.7-1.5,3.7-1.5,5.9s.5,4.2,1.5,5.9,2.4,3.1,4.1,4.1h0c1.7,1,3.6,1.5,5.7,1.5s4-.5,5.8-1.5c1.7-1,3.1-2.3,4-4.1,1-1.7,1.5-3.7,1.5-6s-.5-4.2-1.5-6c-1-1.7-2.3-3.1-4-4.1-1.8-.8-3.7-1.3-5.8-1.3Zm0,22.4c-1.9,0-3.6-.5-5.2-1.3-1.5-.9-2.8-2.2-3.7-3.9-.8-1.7-1.3-3.6-1.3-5.7s.4-4.1,1.3-5.7c.9-1.6,2.1-2.9,3.6-3.8s3.3-1.3,5.2-1.3,3.7,.5,5.2,1.3c1.5,.9,2.8,2.2,3.6,3.8,.9,1.6,1.3,3.5,1.3,5.7s-.4,4-1.3,5.7-2.1,3-3.7,3.9h0c-1.4,.8-3.1,1.3-5,1.3Zm0-19.6c-1.5,0-2.9,.4-4.1,1.1s-2.1,1.7-2.8,3c-.7,1.3-1.1,2.9-1.1,4.7s.4,3.3,1.1,4.6,1.6,2.3,2.8,3c1.2,.7,2.6,1.1,4.1,1.1s2.9-.4,4.1-1.1h0c1.2-.7,2.1-1.7,2.8-3,.7-1.3,1.1-2.9,1.1-4.6,0-1.8-.4-3.4-1.1-4.7s-1.6-2.3-2.8-3c-1.2-.7-2.6-1.1-4.1-1.1Z"/></g><g><path class="cls-1" d="M101.2,49.3l-5.9-10.1h-3.9v10.1h-3.2V24.7h7.9c1.9,0,3.4,.3,4.7,1,1.3,.6,2.2,1.5,2.9,2.6,.6,1.1,1,2.3,1,3.7,0,1.7-.5,3.2-1.5,4.5s-2.4,2.2-4.4,2.6l6.2,10.3h-3.8v-.1Zm-9.7-12.6h4.7c1.7,0,3-.4,3.9-1.3,.9-.9,1.3-2,1.3-3.4,0-1.5-.4-2.6-1.3-3.4s-2.2-1.2-3.9-1.2h-4.7v9.3Z"/><path class="cls-1" d="M107,50.4h-6.4l-5.9-10.1h-2.2v10.1h-5.4V23.6h9c2,0,3.8,.4,5.2,1.1,1.5,.7,2.6,1.7,3.3,3,.7,1.2,1.1,2.7,1.1,4.3,0,1.9-.6,3.7-1.7,5.1-.9,1.2-2.1,2-3.6,2.6l6.6,10.7Zm-5.1-2.2h1.3l-6-10,1.5-.3c1.7-.4,2.9-1.1,3.8-2.2,.8-1.1,1.2-2.4,1.2-3.8,0-1.2-.3-2.2-.8-3.2-.5-.9-1.3-1.6-2.4-2.2s-2.6-.8-4.2-.8h-6.9v22.4h1.1v-9.9h5.5l5.9,10Zm-5.7-10.4h-5.8v-11.5h5.8c2,0,3.6,.5,4.7,1.5s1.6,2.4,1.6,4.2c0,1.7-.5,3.1-1.6,4.2-1.1,1-2.6,1.6-4.7,1.6Zm-3.6-2.2h3.7c1.4,0,2.5-.3,3.2-1s1-1.5,1-2.7-.3-2-.9-2.6-1.7-.9-3.2-.9h-3.7v7.2h-.1Z"/></g><g><path class="cls-1" d="M113.2,48.7c-1.3-.6-2.3-1.4-3-2.4s-1.1-2.2-1.1-3.5h3.4c.1,1.2,.6,2.1,1.4,2.9,.8,.8,2.1,1.2,3.7,1.2,1.5,0,2.7-.4,3.6-1.1,.9-.8,1.3-1.7,1.3-2.9,0-.9-.3-1.7-.8-2.3s-1.2-1-1.9-1.3c-.8-.3-1.8-.6-3.1-1-1.6-.4-2.9-.8-3.9-1.3-1-.4-1.8-1.1-2.5-2s-1-2.1-1-3.7c0-1.3,.3-2.5,1-3.6,.7-1,1.6-1.8,2.9-2.4,1.2-.6,2.7-.8,4.3-.8,2.3,0,4.2,.6,5.7,1.7,1.5,1.2,2.3,2.7,2.5,4.6h-3.7c-.1-.9-.6-1.8-1.5-2.5s-2-1.1-3.5-1.1c-1.3,0-2.4,.3-3.3,1-.8,.7-1.3,1.7-1.3,2.9,0,.9,.3,1.6,.8,2.2s1.1,1,1.9,1.3c.7,.3,1.8,.6,3.1,1,1.6,.4,2.9,.9,3.9,1.3,1,.4,1.8,1.1,2.5,2s1.1,2.1,1.1,3.7c0,1.2-.3,2.3-1,3.4-.6,1.1-1.6,1.9-2.8,2.6-1.2,.7-2.7,1-4.4,1-1.6,0-3-.3-4.3-.9Z"/><path class="cls-1" d="M117.5,50.7c-1.8,0-3.4-.3-4.8-1h0c-1.5-.7-2.6-1.6-3.5-2.8s-1.3-2.6-1.3-4.2v-1.1h5.5l.1,1c.1,.9,.4,1.6,1.1,2.2,.6,.6,1.6,.9,2.9,.9s2.2-.3,2.9-.9c.6-.6,1-1.2,1-2.1,0-.7-.2-1.2-.5-1.6-.4-.5-.9-.8-1.5-1-.7-.3-1.8-.6-3-1-1.7-.4-3-.9-4.1-1.3-1.1-.5-2.1-1.3-2.9-2.3-.8-1.1-1.3-2.5-1.3-4.3,0-1.6,.4-2.9,1.2-4.2,.8-1.2,1.9-2.1,3.3-2.8,1.4-.6,3-.9,4.7-.9,2.5,0,4.7,.7,6.3,2,1.7,1.3,2.7,3.1,2.9,5.3l.1,1.2h-5.6l-.1-.9c-.1-.7-.4-1.2-1.1-1.8-.7-.6-1.6-.8-2.8-.8-1.1,0-1.9,.3-2.6,.8-.6,.5-.9,1.1-.9,2.1,0,.6,.2,1.1,.5,1.5,.4,.4,.9,.8,1.5,1,.7,.3,1.7,.6,3,1,1.7,.5,3,.9,4.1,1.4s2.1,1.3,3,2.3c.9,1.1,1.3,2.6,1.3,4.4,0,1.4-.4,2.7-1.1,3.9s-1.8,2.2-3.2,3c-1.5,.6-3.2,1-5.1,1Zm-7.3-6.9c.1,.7,.4,1.3,.8,1.8,.6,.9,1.5,1.5,2.6,2h0c1.1,.5,2.5,.8,3.9,.8,1.5,0,2.8-.3,3.9-.9,1.1-.6,1.9-1.3,2.4-2.2s.8-1.8,.8-2.8c0-1.3-.3-2.3-.8-3-.6-.8-1.3-1.3-2.1-1.7-.9-.4-2.2-.8-3.8-1.3-1.4-.4-2.5-.7-3.2-1-.9-.4-1.7-.9-2.3-1.6-.7-.8-1-1.7-1-2.9,0-1.6,.6-2.8,1.7-3.7,1-.9,2.4-1.3,4-1.3,1.7,0,3.1,.4,4.1,1.3,.8,.7,1.3,1.4,1.6,2.2h1.4c-.3-1.1-.9-1.9-1.9-2.7-1.3-1-3-1.5-5-1.5-1.4,0-2.7,.3-3.8,.7-1.1,.5-1.9,1.1-2.4,2-.6,.9-.8,1.8-.8,3,0,1.3,.3,2.3,.8,3,.6,.8,1.3,1.3,2.1,1.7,.9,.4,2.2,.8,3.7,1.2,1.4,.4,2.5,.7,3.3,1,.9,.4,1.7,.9,2.4,1.6,.7,.8,1,1.8,1,3,0,1.5-.6,2.8-1.7,3.8-1.1,.9-2.5,1.4-4.3,1.4-1.9,0-3.4-.5-4.4-1.5-.8-.7-1.3-1.6-1.6-2.6h-1.4v.2Z"/></g><g><path class="cls-1" d="M145,43.9h-10.7l-2,5.5h-3.4l8.9-24.5h3.7l8.9,24.5h-3.4l-2-5.5Zm-.9-2.7l-4.4-12.4-4.4,12.4h8.8Z"/><path class="cls-1" d="M151.9,50.4h-5.7l-2-5.5h-9.2l-2,5.5h-5.7l9.7-26.6h5.2l9.7,26.6Zm-4.2-2.2h1.1l-8.1-22.3h-1l5.9,16.4h-12l5.9-16.4h-1l-8.1,22.3h1.1l2-5.5h12.2l2,5.5Zm-11-8h5.8l-2.9-8.1-2.9,8.1Z"/></g></g><polygon class="cls-2" points="11.9 23.7 11.9 45.7 28 45.7 28 50.5 7.1 50.5 7.1 21 7.1 20.9 7.1 20.9 7.1 15.5 7.1 15.5 11.9 18.2 11.9 18.2 11.9 18.2 23.3 24.8 28 27.5 28 33 23.3 30.2 11.9 23.7"/><polygon class="cls-3" points="49.1 12.8 49.1 12.9 44.4 15.6 30.4 7.5 16.6 15.5 11.9 12.8 11.9 12.7 25.6 4.8 30.4 2 35.1 4.8 49.1 12.8"/><rect class="cls-4" x="27.3" y="16.2" width="2.5" height="2.5"/><rect class="cls-4" x="31.1" y="16.2" width="2.5" height="2.5"/><rect class="cls-4" x="27.3" y="19.7" width="2.5" height="2.5"/><rect class="cls-4" x="31.1" y="19.7" width="2.5" height="2.5"/></svg>