<?xml version="1.0" encoding="utf-8"?>
<!-- Generator: Adobe Illustrator 26.3.1, SVG Export Plug-In . SVG Version: 6.00 Build 0)  -->
<svg version="1.1" id="Capa_1" xmlns="http://www.w3.org/2000/svg" xmlns:xlink="http://www.w3.org/1999/xlink" x="0px" y="0px"
	 viewBox="0 0 198 150" style="enable-background:new 0 0 198 150;" xml:space="preserve">
<style type="text/css">
	.st0{fill:#007665;}
	.st1{fill:#FE6D2C;}
	.st2{fill:#010101;}
	.st3{fill:#083860;}
</style>
<g>
	<path class="st1" d="M166.1,71.6c-9.4,0-18.7,0-28.1,0c-1,0-1.5,0-1.7-1.3C134.3,53.3,121,40,104,37.7c-1.5-0.2-1.7-0.7-1.7-2
		c0-9.3,0-18.7,0-28c0-2.3-1.2-3.7-3.2-3.8c-2.1-0.1-3.5,1.4-3.5,3.8c0,2.5,0,4.9,0,7.4c0,7,0,14,0,21c0,1-0.1,1.6-1.4,1.6
		c-1.6,0.1-3.1,0.5-4.7,0.8C75,42.2,64,54.4,61.8,69.5c-0.2,1.5-0.6,2.3-2.4,2.1c-1.4-0.2-2.9,0-4.4,0c-7.8,0-15.5,0-23.3,0
		c-2.4,0-3.9,1.4-3.9,3.4c0,2.1,1.5,3.4,3.8,3.4c9.2,0,18.5,0.1,27.7,0c1.7,0,2.2,0.5,2.4,2c1.3,9.5,5.8,17.4,13.1,23.6
		c4.8,4.1,10.3,6.8,16.6,7.9c0.5,0.4,1.1,0.3,1.7,0.4c2.4,0.4,2.3,0.3,2.3,2.8c0,9,0,18,0,26.9c0,0.5-0.1,0.9,0.2,1.4
		c0.8,2.7,3.4,3.7,5.4,2c1.1-0.9,1.3-2,1.3-3.3c0-9.2,0-18.5,0-27.7c0-1.4,0.3-1.9,1.8-2.1c16.6-2.2,29.8-15.3,32.1-31.8
		c0.2-1.7,0.7-2.2,2.4-2.2c9.2,0.1,18.5,0,27.7,0c2.2,0,3.5-1.1,3.7-3C170.3,73.1,168.8,71.6,166.1,71.6z M61.2,77.8H30.9
		c0-0.1,0-0.2,0-0.2h30.2V77.8z M123.7,78.3c1.5,0,3.1,0.1,4.6,0c1.2-0.1,1.5,0.4,1.2,1.5c-1.9,10.4-7.5,18-16.9,22.8
		c-2.8,1.4-5.7,2.3-8.8,2.8c-1.1,0.2-1.4-0.1-1.4-1.2c0.1-1.7,0.1-3.4,0-5.1c-0.1-1.9-1.5-3.2-3.3-3.2c-1.9,0-3.3,1.4-3.4,3.3
		c-0.1,1.3,0,2.7,0,4.1c0,2.3,0,2.3-2.2,2.1c-0.5-0.2-1.1,0.2-1.5-0.3c-8.7-2.4-15.5-7.3-20-15.3c-1.8-3.3-2.8-6.8-3.6-10.4
		c-0.2-1,0.2-1.1,1-1.1c1.7,0,3.4,0,5.1,0c2,0,3.4-1.3,3.5-3.2c0.1-1.9-1.3-3.5-3.3-3.6c-1.7-0.1-3.4,0-5.1,0c-0.9,0-1.3,0-1.1-1.2
		c2.7-13.7,11.7-22.9,25.3-25.8c1.4-0.3,2.1-0.2,1.9,1.5c-0.1,1.5-0.1,2.9,0,4.4C95.7,52.6,97,54,99,54c2.1,0,3.4-1.4,3.4-3.6
		c0-1.5,0.1-3.1,0-4.6c-0.1-1.3,0.5-1.5,1.5-1.3c8.1,1.5,14.8,5.4,19.8,12c3,4.1,5,8.6,5.8,13.6c0.2,1.2,0,1.6-1.3,1.5
		c-1.5-0.1-3.1-0.1-4.6,0c-2.2,0.1-3.7,1.4-3.7,3.4C120,77,121.5,78.3,123.7,78.3z"/>
	<path class="st1" d="M110.4,24.4c20.2,5.2,33.2,17.9,38.9,37.9c0.9,3.1,0.8,3.2,4.1,3.2c0.7,0,1.4-0.1,2.1,0
		c1.2,0.1,1.3-0.2,1.1-1.4c-2.7-14-9.7-25.5-20.7-34.6c-7.6-6.3-16.4-10.2-26-12.2c-1.2-0.2-1.7,0-1.6,1.3c0.1,1.1,0.2,2.3,0,3.3
		C108.2,23.6,109,24,110.4,24.4z"/>
	<path class="st1" d="M44.5,65.4c0.3,0,0.6,0,0.9,0c1.9,0.4,2.6-0.4,3.1-2.3c2.9-12,9.2-21.8,19-29.3c6.1-4.7,12.9-7.8,20.4-9.5
		c1.2-0.3,1.8-0.7,1.7-2c-0.1-1.3-0.1-2.6,0-3.9c0.1-1.3-0.5-1.4-1.4-1.1c-1.4,0.3-2.9,0.6-4.3,1C61.5,25,47.5,39.6,41.7,62.2
		C40.9,65.4,41,65.4,44.5,65.4z"/>
	<path class="st1" d="M155.8,84.5c-1.4,0.1-2.7,0.1-4.1,0c-1.2-0.1-1.7,0.3-2,1.5c-1,5-2.8,9.8-5.4,14.2
		c-7.9,13.6-19.5,22.1-34.8,25.5c-0.8,0.2-1.1,0.4-1.1,1.2c0,1.9,0,3.8,0,5.8c0.7-0.1,1.2-0.1,1.7-0.2c23.5-4.5,42.1-23.2,46.5-46.9
		C157,84.6,156.7,84.5,155.8,84.5z"/>
	<path class="st1" d="M88.1,125.9c-2.3-0.7-4.5-1.3-6.8-2c-0.3-0.1-0.5-0.3-0.8-0.4C64.6,117,54.2,105.6,49,89.3
		c-0.5-1.6-0.1-3.9-1.5-4.6c-1.4-0.7-3.5-0.1-5.2-0.2c-1.1,0-1.2,0.2-1,1.3c1.9,10,6.1,18.9,12.6,26.7c6,7.1,13.1,12.7,21.8,16.2
		c1,0.6,2.1,1,3.2,1.3l0.1,0.1l0.2,0c1,0.6,2.1,0.8,3.2,1c2.3,0.8,4.6,1.3,7.1,1.6c0-2-0.1-3.8,0-5.6
		C89.6,126,89.1,125.7,88.1,125.9z M82.4,125.9L82.4,125.9C82.4,125.9,82.4,125.9,82.4,125.9C82.4,125.9,82.4,125.9,82.4,125.9
		C82.4,125.9,82.4,125.9,82.4,125.9z"/>
	<path class="st1" d="M82.4,125.9L82.4,125.9C82.4,125.9,82.4,125.9,82.4,125.9C82.4,125.9,82.4,125.9,82.4,125.9
		C82.4,125.9,82.4,125.9,82.4,125.9z"/>
	<path class="st1" d="M93.4,105.4c-0.5-0.3-1-0.3-1.5-0.3C92.3,105.6,92.9,105.2,93.4,105.4z"/>
	<path class="st1" d="M30.9,77.8h30.2v-0.2H30.9C30.9,77.7,30.9,77.7,30.9,77.8z"/>
	<path class="st1" d="M99,63.1C92.5,63,87.2,68.4,87.2,75c0,6.6,5.2,11.9,11.8,11.9c6.6,0,11.9-5.3,12-11.8
		C111,68.5,105.7,63.1,99,63.1z"/>
</g>
</svg>
