<?xml version="1.0" encoding="utf-8"?>
<!-- Generator: Adobe Illustrator 26.3.1, SVG Export Plug-In . SVG Version: 6.00 Build 0)  -->
<svg version="1.1" id="Capa_1" xmlns="http://www.w3.org/2000/svg" xmlns:xlink="http://www.w3.org/1999/xlink" x="0px" y="0px"
	 viewBox="0 0 198 150" style="enable-background:new 0 0 198 150;" xml:space="preserve">
<style type="text/css">
	.st0{fill:#FE6D2C;}
</style>
<path class="st0" d="M108.2,25.2c7.6,0,13.1,2.7,18.1,6.6c3.7,2.9,7.5,4.1,12,1.9c2.9-1.4,4.2-0.7,5.6,2c6,11.5,12,23,18.1,34.4
	c1.4,2.6,1,4.9-0.2,7.3c-2.2,4.2-5.8,7.3-9.3,10.4c-1.8,1.6-3.9,2.9-5.7,4.4c-1.3,1.1-2.2,0.9-3.3-0.3c-7.6-8.4-15.3-16.8-23-25.2
	c-5.3-5.8-10.5-11.5-15.8-17.3c-0.9-1-1.9-1.3-3.2-0.6c-6.6,3.8-13.5,7.1-20.1,11.1c-3,1.8-6,3.4-9.7,3.3c-3.9-0.1-6.7-2.7-6.9-6.7
	c-0.2-3.6,1.4-6.3,4-8.5c5.9-4.9,12.5-8.8,19-12.9c3.8-2.4,7.6-4.7,11.4-7C102.2,26.1,105.5,25,108.2,25.2L108.2,25.2z"/>
<path class="st0" d="M181.7,66.6c0.1,1.6-0.6,3-2,3.8c-2.4,1.4-4.8,2.7-7.3,3.9c-2,1-4,0.7-5.6-1.1c-1.1-1.2-1.9-2.5-2.6-3.8
	c-5.9-11-11.8-22-17.7-33c-0.2-0.4-0.4-0.7-0.6-1.1c-2.6-5.5-1.9-7.8,3.5-10.6c1.2-0.7,2.5-1.3,3.8-1.9c2.6-1.3,4.5-0.9,6.4,1.3
	c1.3,1.5,2.2,3.3,3.1,5c5.7,10.6,11.4,21.2,17.1,31.8C180.7,62.6,181.7,64.5,181.7,66.6L181.7,66.6z"/>
<path class="st0" d="M46.7,26.8c-0.2,3.9-1.7,6.7-2.9,9.6C39.4,47.2,34.9,58,30.4,68.9c-0.4,1-1,2.1-1.6,3c-1.7,2.5-3.2,2.9-6,1.8
	c-1-0.4-2.1-0.9-3.1-1.3c-3.2-1.4-4-2.9-3-6.4c1.2-4.2,3.1-8,4.7-12c3.7-9,7.4-17.9,11.1-26.9c0.5-1.2,1.1-2.3,1.8-3.4
	c1.5-2.4,3.5-3,6.2-1.9c1,0.4,2.1,0.9,3.2,1.2C45.8,23.7,47,25.1,46.7,26.8L46.7,26.8z"/>
<path class="st0" d="M99.6,100.5c0.2,1.8-0.6,3.4-2,4.7c-4.4,4.2-8.8,8.4-13.3,12.6c-2.9,2.7-6.8,2.8-9.2,0.3
	c-2.4-2.6-2-6.3,0.9-9.1c4.1-3.9,8.2-7.8,12.4-11.7c1.7-1.6,3.5-3.1,6.2-2.7C97.8,95.1,99.6,97.1,99.6,100.5L99.6,100.5z"/>
<path class="st0" d="M147.2,92.6c2.9,3.1,3,5.6,0.5,8.6c-3.2,3.8-7.3,4.8-11.9,2.9c-0.6-0.2-1.1-0.5-2.1-1c1,4.1,0.6,7.6-3.2,9.7
	c-3.7,2.1-6.9,0.4-10.3-1.4c-0.2,1.6-0.2,3-0.5,4.4c-1,4.8-4.9,7.3-9.6,6.5c-0.6-0.1-1.6,0.1-1.2-1.1c0.2-0.9,0.2-1.9,1.6-1.9
	c5.4-0.1,7.7-3,6.7-8.3c-0.2-0.7-0.6-1.3-1-1.8c-3.4-4.1-6.8-8.2-10.1-12.3c-0.5-0.7-1.6-1.3-0.2-2.4c1.3-1.1,1.9-0.5,2.7,0.5
	c3.3,4.1,6.4,8.3,10.5,11.7c1.8,1.5,3.7,2.9,5.9,3.7c2.4,0.9,4.3,0.4,5.7-1.4c1.1-1.4,1.1-3.6-0.3-5.5c-2.9-4.1-5.9-8.1-8.9-12.2
	c-1.1-1.5-2.3-3.1-3.4-4.7c-0.3-0.4-1.3-1-0.1-1.6c0.8-0.4,1.6-1.4,2.5-0.2c0.9,1.3,1.8,2.5,2.8,3.8c3.4,4.6,7.1,8.9,12.1,11.8
	c4.3,2.5,7.4,2.2,10.1-1c0.8-0.9,1.4-1.9,1.1-3.3C146.1,94.9,146.8,93.8,147.2,92.6L147.2,92.6z"/>
<path class="st0" d="M54.5,31.3c-3.1,9.4-7,18.1-10.8,27c-1.4,3.2-2.6,6.4-4.2,9.5c-1.2,2.2-0.9,4,0.2,6c2.1,3.7,5.2,6.5,8.4,9.2
	c0.5,0.4,0.9,0.9,1.5,1.2c1.4,0.7,0.5,1.4,0.1,2.2c-0.6,1-1.1,0.7-1.8,0.1c-3.8-2.9-7.3-6.1-10-10.1c-2.1-3.1-2.7-6.2-1-9.9
	c5-10.8,9.7-21.7,13.8-32.8c0.3-0.7,0.6-1.5,0.7-2.2c0.5-3,3.1-4.1,5.3-2.1c2.2,2,4.2,4,7.7,3.4c2.9-0.6,5.5-1.8,7.9-3.5
	c3.4-2.5,7.1-4.5,11.4-5.3c3.1-0.6,5.9-0.1,8.5,1.6c0.4,0.3,1.2,0.6,0.7,1.2c-0.5,0.6-0.9,2-2,1.4c-5-3.1-9.4-0.9-13.7,1.4
	c-2.1,1.1-3.9,2.6-5.9,3.8C66.1,36.2,59.4,37.3,54.5,31.3L54.5,31.3z"/>
<path class="st0" d="M67.8,109.7c-2.8,0.2-4.6-1.1-5.7-3.4c-1.1-2.3-0.5-4.9,1.4-6.8c3.9-3.7,7.8-7.5,11.8-11.1
	c3.6-3.2,8.5-1.7,9.9,2.9c0.7,2.1,0.1,4-1.4,5.5c-4.1,4-8.2,7.8-12.4,11.7C70.4,109.5,69.1,109.9,67.8,109.7L67.8,109.7z"/>
<path class="st0" d="M107.3,114.8c0.2,1.1-0.3,2-1.1,3c-2.3,3-4.6,6-6.9,8.9c-1.9,2.5-5.1,2.7-7.9,0.6c-2.8-2-3.6-5.3-1.8-7.8
	c2.2-3,4.5-5.9,6.7-8.8c1.9-2.5,3.6-3.1,6.2-2.2C105.5,109.5,107.3,111.9,107.3,114.8L107.3,114.8z"/>
<path class="st0" d="M65.3,92.8c-0.2,1-0.4,1.9-1.2,2.7c-2.4,2.2-4.8,4.5-7.1,6.7c-0.9,0.8-2,1-3.1,0.9c-3-0.3-6.2-3.8-6.3-6.8
	c0-1.2,0.4-2.2,1.3-3c2-1.8,3.9-3.7,5.9-5.6c2.8-2.6,5.4-2.6,8.2,0.2C64.4,89.3,65.2,90.9,65.3,92.8L65.3,92.8z"/>
</svg>
