<?xml version="1.0" encoding="utf-8"?>
<!-- Generator: Adobe Illustrator 26.3.1, SVG Export Plug-In . SVG Version: 6.00 Build 0)  -->
<svg version="1.1" id="Capa_1" xmlns="http://www.w3.org/2000/svg" xmlns:xlink="http://www.w3.org/1999/xlink" x="0px" y="0px"
	 viewBox="0 0 198 150" style="enable-background:new 0 0 198 150;" xml:space="preserve">
<style type="text/css">
	.st0{fill:#007665;}
	.st1{fill:#FE6D2C;}
	.st2{fill:#010101;}
	.st3{fill:#083860;}
</style>
<path class="st1" d="M174.2,48.6c-7.9-11-15.8-21.9-23.7-32.9c-1-1.4-2.2-2-3.9-2c-31.7,0-63.5,0-95.2,0c-1.7,0-2.9,0.7-3.9,2.1
	c-3.3,4.7-6.7,9.3-10,14c-4.6,6.4-9.2,12.7-13.8,19.1c-1.2,1.7-1.3,3.3-0.1,4.8c5.1,6.3,10.3,12.6,15.5,19c0.4,0.6,0.7,1.2,1.4,1.5
	c3.9,4.8,7.7,9.6,11.6,14.4c14.5,17.8,29,35.6,43.5,53.3c2.3,2.8,4.6,2.9,6.9,0c6.3-7.7,12.6-15.5,18.9-23.2
	c17.5-21.5,35.1-43,52.6-64.5C175.7,52.1,175.7,50.7,174.2,48.6z M89.6,20.9c6.3,0,12.6,0,18.9,0c0.8,0,1.4,0.1,1.8,0.9
	c5.1,8.3,10.2,16.5,15.3,24.8c0.2,0.3,0.4,0.5,0.2,0.9h-54c0.9-1.5,1.6-2.8,2.4-4.1c4.4-7.1,8.8-14.2,13.1-21.3
	C88,21.2,88.6,20.9,89.6,20.9z M33.8,47.3C33.8,47.3,33.8,47.3,33.8,47.3c0-0.1,0-0.1-0.1-0.2C38.1,41,42.5,35,46.9,29
	c1.7-2.4,3.4-4.8,5.1-7.2c0.4-0.6,0.9-0.9,1.7-0.9c8.5,0,17.1,0,25.9,0c-5.5,9-10.9,17.8-16.2,26.6c-9.5,0-19.1,0.1-28.6,0.1
	C34.4,47.6,34,47.7,33.8,47.3z M63,54.6C63,54.6,63,54.6,63,54.6C63,54.6,63,54.6,63,54.6C63,54.6,63,54.6,63,54.6
	C63,54.6,63,54.6,63,54.6z M79.6,110.8c-10-12.2-20-24.5-30-36.7c-1.7-2.1-3.5-4.3-5.2-6.4c-3.4-4.2-6.7-8.4-10.1-12.6
	c0.2,0,0.5-0.1,0.7-0.1c8.8,0,17.7,0,26.5-0.1c0.5,0,1,0,1.4,0.3c0.1,0,0.1,0.1,0.2,0.2C68.3,68.9,73.6,82.4,78.9,96
	c3.3,8.4,6.6,16.8,9.9,25.2c0.1,0.3,0.1,0.5,0.3,1.3C85.7,118.3,82.6,114.5,79.6,110.8z M99.7,124.4c-0.2,0.6-0.5,1.3-1,2.3
	c-9.4-24.1-18.8-47.8-28.2-71.7h37.7c5.7,0,11.4,0.1,17.1,0c1.7,0,2,0.3,1.3,1.9c-6.4,15.7-12.8,31.5-19.1,47.2
	C104.8,110.7,102.3,117.6,99.7,124.4z M107.9,123.7c-0.1,0-0.2-0.1-0.3-0.1c0.5-1.2,0.9-2.4,1.4-3.6c8.3-21.2,16.9-42.4,25.5-63.5
	c0.4-0.9,0.7-1.6,1.9-1.6c8.8,0.1,17.6,0,26.4,0c0.2,0,0.5-0.1,0.8,0.4C145.1,78.1,126.5,100.9,107.9,123.7z M162.9,47.6
	c-8.9,0-17.7,0-26.6,0c-0.9,0-1.6-0.1-2.2-1c-5.1-8.3-10.2-16.7-15.3-25c-0.1-0.1-0.1-0.3-0.3-0.7c8.7,0,17.2,0,25.7,0
	c1,0,1.4,0.5,1.9,1.2c6,8.4,12.1,16.8,18.1,25.2C163.9,47.9,163.4,47.6,162.9,47.6z"/>
<path class="st2" d="M63,54.6C63,54.6,63,54.6,63,54.6C63,54.6,63,54.6,63,54.6L63,54.6z"/>
<path class="st2" d="M63,54.6C63,54.6,63,54.6,63,54.6L63,54.6C63,54.6,63,54.6,63,54.6z"/>
</svg>
