<?xml version="1.0" encoding="utf-8"?>
<!-- Generator: Adobe Illustrator 26.3.1, SVG Export Plug-In . SVG Version: 6.00 Build 0)  -->
<svg version="1.1" id="Capa_1" xmlns="http://www.w3.org/2000/svg" xmlns:xlink="http://www.w3.org/1999/xlink" x="0px" y="0px"
	 viewBox="0 0 198 150" style="enable-background:new 0 0 198 150;" xml:space="preserve">
<style type="text/css">
	.st0{fill:#007665;}
	.st1{fill:#FE6D2C;}
	.st2{fill:#010101;}
	.st3{fill:#083860;}
</style>
<path class="st1" d="M177.6,60.4c-14.5-11.4-30.1-20.5-47.8-26.1C114,29.3,97.9,28,81.6,31c-13.1,2.4-25.4,7.1-37,13.5
	C31.1,51.8,18.8,60.8,7.9,71.5c-2.5,2.5-2.4,4.3,0.1,6.7c3.9,3.9,8.1,7.5,12.4,10.9c7.8,6.1,15.8,11.7,24.7,16.2
	c2.2,1.3,4.5,2.6,6.9,3.5c5.6,2.9,11.6,5.1,17.6,6.9c16.7,5.1,33.7,6.1,50.7,2.1c27.3-6.3,50-20.7,70-39.9c2.3-2.2,2.2-4.2,0-6.4
	C186.3,67.6,182,63.9,177.6,60.4z M59.5,104.3c-1.9-1.3-4.1-2-6.1-3c-13.4-6.7-25.6-15.1-36.7-25c-1.2-1.1-1.5-1.5-0.1-2.8
	C31.3,60.5,47.4,50,65.7,43.1c0.3-0.1,0.6-0.2,1.3-0.5c-1.9,2.2-3.6,4-4.9,6c-10.1,15.2-11.2,31.1-3,47.5c0.1,0.2,0.3,0.4,0.5,0.6
	c0.4,1.4,1.3,2.6,2.2,3.7c0.3,0.4,0.4,1,0.9,1.2c0.3,0.6,0.6,1.1,1.1,1.5c1,1.2,1.9,2.4,3.1,3.8C64.3,106,61.9,105.1,59.5,104.3z
	 M103.4,112.3c-13.6,1.7-24.7-3.2-33.6-13.6c-0.2-0.3-0.5-0.5-0.8-0.8c-1.6-2.6-3.4-5.2-4.6-8c-3.2-7.8-4.2-15.9-2-24.1
	c4.1-15.2,14-24.9,29.5-28.1c14.3-2.9,26.6,1.6,36.1,12.6c9.2,10.8,11.6,23.5,6.8,36.9C129.4,101.8,118.8,110.4,103.4,112.3z
	 M181.9,75.8c-14.9,13.2-31.4,24-50.2,31c0,0-0.1,0-0.3-0.1c17.4-18.2,17.2-45.6-0.1-63.7c1.3,0,2.3,0.6,3.3,1
	c17.5,7,33,17.2,47,29.7C182.3,74.3,183.1,74.8,181.9,75.8z"/>
<path class="st1" d="M92.1,54.1c4.1,4,4.6,9.7,1.4,13.7c-1.6,2-3.8,3.4-6.3,3.7c-3.7,0.5-6.8-0.8-9.3-3.6c-1.2,3.3-1.3,6.4-1,9.5
	c0.3,2,0.5,4,1.5,5.8c-0.1,0.5,0.2,0.8,0.4,1.1c0.4,1.2,1,2.2,1.8,3.2c6.6,9.8,20.2,12.6,30.1,6.3c10.1-6.5,13.5-20.1,7.4-30.1
	C112.7,54.6,99.7,49.8,92.1,54.1z"/>
</svg>
